<?xml version="1.0" encoding="utf-8"?>
<!-- Generator: Adobe Illustrator 17.0.0, SVG Export Plug-In . SVG Version: 6.00 Build 0)  -->
<!DOCTYPE svg PUBLIC "-//W3C//DTD SVG 1.1//EN" "http://www.w3.org/Graphics/SVG/1.1/DTD/svg11.dtd">
<svg version="1.1" id="Layer_1" xmlns="http://www.w3.org/2000/svg" xmlns:xlink="http://www.w3.org/1999/xlink" x="0px" y="0px"
	 width="1089px" height="472px" viewBox="0 0 1089 472" enable-background="new 0 0 1089 472" xml:space="preserve">
<g>
	<g>
		<g>
			<linearGradient id="SVGID_1_" gradientUnits="userSpaceOnUse" x1="17.2869" y1="236.6826" x2="450.6202" y2="236.6826">
				<stop  offset="0" style="stop-color:#B2763B"/>
				<stop  offset="1" style="stop-color:#FFFFFF"/>
			</linearGradient>
			<circle fill="url(#SVGID_1_)" cx="233.954" cy="236.683" r="216.667"/>
			<circle cx="233.954" cy="236.683" r="211.852"/>
			<circle cx="237.454" cy="237.433" r="201.519"/>
			<circle opacity="0" fill="none" stroke="#C69C6D" stroke-miterlimit="10" cx="233.954" cy="236.683" r="157.519"/>
			<path fill="#66411D" d="M254.352,80.537c0,0-1.095-44.178,5.686-42.319C260.038,38.218,268.335,35.266,254.352,80.537z"/>
			<circle fill="none" stroke="#C69C6D" stroke-miterlimit="10" cx="233.5" cy="236.441" r="4"/>
			<path fill="#66411D" d="M265.228,82.427c0,0,2.019-44.145,8.653-41.813C273.881,40.613,282.365,38.253,265.228,82.427z"/>
			<circle fill="none" stroke="#C69C6D" stroke-miterlimit="10" cx="233.446" cy="236.475" r="4"/>
			<path fill="#66411D" d="M275.944,85.078c0,0,5.124-43.893,11.577-41.1C287.521,43.978,296.15,42.221,275.944,85.078z"/>
			<circle fill="none" stroke="#C69C6D" stroke-miterlimit="10" cx="233.39" cy="236.504" r="4"/>
			<path fill="#66411D" d="M286.446,88.477c0,0,8.203-43.423,14.443-40.182C300.89,48.294,309.621,47.15,286.446,88.477z"/>
			<circle fill="none" stroke="#C69C6D" stroke-miterlimit="10" cx="233.331" cy="236.53" r="4"/>
			<path fill="#66411D" d="M296.684,92.607c0,0,11.241-42.738,17.238-39.065C313.921,53.542,322.712,53.015,296.684,92.607z"/>
			<circle fill="none" stroke="#C69C6D" stroke-miterlimit="10" cx="233.272" cy="236.551" r="4"/>
			<path fill="#66411D" d="M306.604,97.449c0,0,14.224-41.84,19.947-37.754C326.551,59.695,335.357,59.789,306.604,97.449z"/>
			<circle fill="none" stroke="#C69C6D" stroke-miterlimit="10" cx="233.21" cy="236.568" r="4"/>
			<path fill="#66411D" d="M316.16,102.977c0,0,17.136-40.734,22.557-36.255C338.716,66.722,347.494,67.436,316.16,102.977z"/>
			<circle fill="none" stroke="#C69C6D" stroke-miterlimit="10" cx="233.148" cy="236.581" r="4"/>
			<path fill="#66411D" d="M325.302,109.164c0,0,19.963-39.426,25.054-34.576C350.356,74.588,359.061,75.919,325.302,109.164z"/>
			<circle fill="none" stroke="#C69C6D" stroke-miterlimit="10" cx="233.085" cy="236.589" r="4"/>
			<path fill="#66411D" d="M333.985,115.98c0,0,22.69-37.921,27.428-32.725C361.413,83.255,370.003,85.195,333.985,115.98z"/>
			<circle fill="none" stroke="#C69C6D" stroke-miterlimit="10" cx="233.022" cy="236.593" r="4"/>
			<path fill="#66411D" d="M342.167,123.391c0,0,25.305-36.229,29.665-30.712C371.831,92.679,380.264,95.22,342.167,123.391z"/>
			<circle fill="none" stroke="#C69C6D" stroke-miterlimit="10" cx="232.958" cy="236.592" r="4"/>
			<path fill="#66411D" d="M349.806,131.36c0,0,27.794-34.356,31.754-28.546C381.561,102.814,389.793,105.942,349.806,131.36z"/>
			<circle fill="none" stroke="#C69C6D" stroke-miterlimit="10" cx="232.895" cy="236.587" r="4"/>
			<path fill="#66411D" d="M356.865,139.847c0,0,30.145-32.313,33.686-26.238C390.552,113.609,398.543,117.309,356.865,139.847z"/>
			<circle fill="none" stroke="#C69C6D" stroke-miterlimit="10" cx="232.832" cy="236.577" r="4"/>
			<path fill="#66411D" d="M363.309,148.81c0,0,32.347-30.11,35.451-23.8C398.76,125.01,406.471,129.264,363.309,148.81z"/>
			<circle fill="none" stroke="#C69C6D" stroke-miterlimit="10" cx="232.77" cy="236.563" r="4"/>
			<path fill="#66411D" d="M369.105,158.205c0,0,34.387-27.756,37.039-21.244C406.145,136.961,413.537,141.748,369.105,158.205z"/>
			<circle fill="none" stroke="#C69C6D" stroke-miterlimit="10" cx="232.709" cy="236.545" r="4"/>
			<path fill="#66411D" d="M374.225,167.985c0,0,36.257-25.265,38.444-18.582C412.669,149.403,419.706,154.699,374.225,167.985z"/>
			<circle fill="none" stroke="#C69C6D" stroke-miterlimit="10" cx="232.65" cy="236.522" r="4"/>
			<path fill="#66411D" d="M378.644,178.101c0,0,37.947-22.648,39.657-15.828C418.301,162.273,424.947,168.051,378.644,178.101z"/>
			<circle fill="none" stroke="#C69C6D" stroke-miterlimit="10" cx="232.592" cy="236.495" r="4"/>
			<path fill="#66411D" d="M382.339,188.504c0,0,39.448-19.919,40.674-12.995C423.012,175.509,429.235,181.74,382.339,188.504z"/>
			<circle fill="none" stroke="#C69C6D" stroke-miterlimit="10" cx="232.537" cy="236.465" r="4"/>
			<path fill="#66411D" d="M385.292,199.14c0,0,40.753-17.091,41.488-10.098C426.78,189.043,432.548,195.697,385.292,199.14z"/>
			<circle fill="none" stroke="#C69C6D" stroke-miterlimit="10" cx="232.483" cy="236.43" r="4"/>
			<path fill="#66411D" d="M387.488,209.959c0,0,41.855-14.178,42.096-7.15C429.584,202.809,434.869,209.853,387.488,209.959z"/>
			<circle fill="none" stroke="#C69C6D" stroke-miterlimit="10" cx="232.433" cy="236.392" r="4"/>
			<path fill="#66411D" d="M388.917,220.905c0,0,42.75-11.194,42.495-4.167C431.412,216.738,436.188,224.137,388.917,220.905z"/>
			<circle fill="none" stroke="#C69C6D" stroke-miterlimit="10" cx="232.385" cy="236.35" r="4"/>
			<path fill="#66411D" d="M389.571,231.925c0,0,43.432-8.155,42.683-1.163C432.255,230.761,436.497,238.479,389.571,231.925z"/>
			<circle fill="none" stroke="#C69C6D" stroke-miterlimit="10" cx="232.34" cy="236.305" r="4"/>
			<path fill="#66411D" d="M389.448,242.963c0,0,43.899-5.075,42.659,1.846C432.107,244.809,435.795,252.806,389.448,242.963z"/>
			<circle fill="none" stroke="#C69C6D" stroke-miterlimit="10" cx="232.298" cy="236.257" r="4"/>
			<path fill="#66411D" d="M388.547,253.965c0,0,44.147-1.97,42.423,4.847C430.97,258.812,434.086,267.049,388.547,253.965z"/>
			<circle fill="none" stroke="#C69C6D" stroke-miterlimit="10" cx="232.26" cy="236.206" r="4"/>
			<path fill="#66411D" d="M386.873,264.877c0,0,44.177,1.144,41.976,7.823C428.85,272.7,431.378,281.136,386.873,264.877z"/>
			<circle fill="none" stroke="#C69C6D" stroke-miterlimit="10" cx="232.226" cy="236.153" r="4"/>
			<path fill="#66411D" d="M384.435,275.643c0,0,43.986,4.253,41.321,10.76C425.756,286.404,427.684,294.997,384.435,275.643z"/>
			<path fill="#66411D" d="M381.245,286.211c0,0,43.577,7.341,40.461,13.644C421.705,299.856,423.023,308.563,381.245,286.211z"/>
			<path fill="#66411D" d="M377.318,296.528c0,0,42.952,10.393,39.399,16.46C416.717,312.989,417.417,321.767,377.318,296.528z"/>
			<path fill="#66411D" d="M372.674,306.543c0,0,42.113,13.392,38.142,19.195C410.815,325.738,410.896,334.544,372.674,306.543z"/>
			<path fill="#66411D" d="M367.336,316.206c0,0,41.065,16.326,36.695,21.834C404.031,338.04,403.491,346.83,367.336,316.206z"/>
			<path fill="#66411D" d="M361.331,325.469c0,0,39.813,19.178,35.066,24.365C396.396,349.833,395.239,358.563,361.331,325.469z"/>
			<path fill="#66411D" d="M354.688,334.285c0,0,38.363,21.935,33.262,26.774C387.95,361.059,386.18,369.686,354.688,334.285z"/>
			<path fill="#66411D" d="M347.441,342.612c0,0,36.723,24.582,31.294,29.051C378.734,371.663,376.361,380.144,347.441,342.612z"/>
			<path fill="#66411D" d="M339.625,350.408c0,0,34.9,27.108,29.169,31.183C368.794,381.591,365.83,389.883,339.625,350.408z"/>
			<path fill="#66411D" d="M331.279,357.634c0,0,32.904,29.499,26.9,33.16C358.18,390.794,354.638,398.857,331.279,357.634z"/>
			<path fill="#66411D" d="M322.445,364.254c0,0,30.744,31.744,24.498,34.973C346.943,399.226,342.843,407.02,322.445,364.254z"/>
			<circle fill="none" stroke="#C69C6D" stroke-miterlimit="10" cx="232.124" cy="235.479" r="4"/>
			<path fill="#66411D" d="M313.167,370.235c0,0,28.432,33.831,21.973,36.611C335.141,406.846,330.501,414.332,313.167,370.235z"/>
			<circle fill="none" stroke="#C69C6D" stroke-miterlimit="10" cx="232.141" cy="235.418" r="4"/>
			<path fill="#66411D" d="M303.491,375.548c0,0,25.978,35.749,19.34,38.068C322.831,413.616,317.675,420.756,303.491,375.548z"/>
			<circle opacity="0" fill="none" stroke="#C69C6D" stroke-miterlimit="10" cx="232.163" cy="235.358" r="4"/>
			<path fill="#66411D" d="M293.464,380.166c0,0,23.396,37.49,16.61,39.336C310.074,419.502,304.429,426.261,293.464,380.166z"/>
			<circle fill="none" stroke="#C69C6D" stroke-miterlimit="10" cx="232.188" cy="235.3" r="4"/>
			<path fill="#66411D" d="M283.137,384.066c0,0,20.697,39.045,13.798,40.408C296.935,424.474,290.828,430.819,283.137,384.066z"/>
			<circle fill="none" stroke="#C69C6D" stroke-miterlimit="10" cx="232.218" cy="235.243" r="4"/>
			<path fill="#66411D" d="M272.561,387.229c0,0,17.895,40.406,10.918,41.28C283.478,428.509,276.939,434.408,272.561,387.229z"/>
			<circle fill="none" stroke="#C69C6D" stroke-miterlimit="10" cx="232.251" cy="235.189" r="4"/>
			<path fill="#66411D" d="M261.788,389.639c0,0,15.004,41.566,7.983,41.946C269.77,431.586,262.832,437.009,261.788,389.639z"/>
			<circle fill="none" stroke="#C69C6D" stroke-miterlimit="10" cx="232.289" cy="235.138" r="4"/>
			<path fill="#66411D" d="M250.872,391.285c0,0,12.039,42.52,5.008,42.404C255.88,433.689,248.577,438.611,250.872,391.285z"/>
			<circle fill="none" stroke="#C69C6D" stroke-miterlimit="10" cx="232.329" cy="235.089" r="4"/>
			<path fill="#66411D" d="M239.868,392.157c0,0,9.014,43.262,2.009,42.652C241.876,434.809,234.244,439.204,239.868,392.157z"/>
			<circle fill="none" stroke="#C69C6D" stroke-miterlimit="10" cx="232.373" cy="235.043" r="4"/>
			<path fill="#66411D" d="M228.829,392.252c0,0,5.944,43.79-1.001,42.687C227.828,434.94,219.906,438.786,228.829,392.252z"/>
			<circle fill="none" stroke="#C69C6D" stroke-miterlimit="10" cx="232.421" cy="235.001" r="4"/>
			<path fill="#66411D" d="M217.811,391.57c0,0,2.844,44.1-4.005,42.511C213.806,434.081,205.632,437.359,217.811,391.57z"/>
			<circle fill="none" stroke="#C69C6D" stroke-miterlimit="10" cx="232.471" cy="234.962" r="4"/>
			<path fill="#66411D" d="M206.868,390.113c0,0-0.269,44.191-6.99,42.123C199.879,432.236,191.494,434.93,206.868,390.113z"/>
			<circle fill="none" stroke="#C69C6D" stroke-miterlimit="10" cx="232.523" cy="234.926" r="4"/>
			<path fill="#66411D" d="M196.056,387.888c0,0-3.381,44.062-9.94,41.526C186.116,429.414,177.563,431.512,196.056,387.888z"/>
			<circle fill="none" stroke="#C69C6D" stroke-miterlimit="10" cx="232.578" cy="234.895" r="4"/>
			<path fill="#66411D" d="M185.427,384.908c0,0-6.477,43.714-12.84,40.723C172.587,425.631,163.907,427.12,185.427,384.908z"/>
			<circle fill="none" stroke="#C69C6D" stroke-miterlimit="10" cx="232.636" cy="234.867" r="4"/>
			<path fill="#66411D" d="M175.034,381.186c0,0-9.54,43.149-15.677,39.717C159.357,420.903,150.594,421.778,175.034,381.186z"/>
			<circle fill="none" stroke="#C69C6D" stroke-miterlimit="10" cx="232.695" cy="234.843" r="4"/>
			<path fill="#66411D" d="M164.929,376.741c0,0-12.556,42.37-18.436,38.514C146.494,415.256,137.691,415.511,164.929,376.741z"/>
			<circle fill="none" stroke="#C69C6D" stroke-miterlimit="10" cx="232.755" cy="234.824" r="4"/>
			<path fill="#66411D" d="M155.163,371.596c0,0-15.509,41.381-21.103,37.12C134.06,408.716,125.261,408.35,155.163,371.596z"/>
			<circle fill="none" stroke="#C69C6D" stroke-miterlimit="10" cx="232.817" cy="234.809" r="4"/>
			<path fill="#66411D" d="M145.783,365.776c0,0-18.385,40.185-23.665,35.541C122.117,401.317,113.366,400.332,145.783,365.776z"/>
			<circle fill="none" stroke="#C69C6D" stroke-miterlimit="10" cx="232.879" cy="234.798" r="4"/>
			<path fill="#66411D" d="M136.836,359.309c0,0-21.17,38.79-26.11,33.786C110.726,393.095,102.066,391.496,136.836,359.309z"/>
			<circle fill="none" stroke="#C69C6D" stroke-miterlimit="10" cx="232.943" cy="234.792" r="4"/>
			<path fill="#66411D" d="M128.367,352.228c0,0-23.85,37.203-28.425,31.863C99.942,384.091,91.416,381.886,128.367,352.228z"/>
			<circle fill="none" stroke="#C69C6D" stroke-miterlimit="10" cx="233.006" cy="234.79" r="4"/>
			<path fill="#66411D" d="M120.418,344.568c0,0-26.412,35.43-30.599,29.781C89.819,374.349,81.47,371.55,120.418,344.568z"/>
			<circle fill="none" stroke="#C69C6D" stroke-miterlimit="10" cx="233.07" cy="234.793" r="4"/>
			<path fill="#66411D" d="M113.028,336.367c0,0-28.842,33.482-32.621,27.552C80.408,363.919,72.276,360.538,113.028,336.367z"/>
			<circle fill="none" stroke="#C69C6D" stroke-miterlimit="10" cx="233.133" cy="234.8" r="4"/>
			<path fill="#66411D" d="M106.235,327.666c0,0-31.129,31.367-34.48,25.186C71.754,352.852,63.881,348.906,106.235,327.666z"/>
			<circle fill="none" stroke="#C69C6D" stroke-miterlimit="10" cx="233.195" cy="234.811" r="4"/>
			<path fill="#66411D" d="M100.071,318.508c0,0-33.261,29.096-36.169,22.694C63.902,341.202,56.326,336.712,100.071,318.508z"/>
			<circle fill="none" stroke="#C69C6D" stroke-miterlimit="10" cx="233.257" cy="234.827" r="4"/>
			<path fill="#66411D" d="M94.567,308.939c0,0-35.228,26.681-37.678,20.09C56.89,329.029,49.649,324.016,94.567,308.939z"/>
			<circle fill="none" stroke="#C69C6D" stroke-miterlimit="10" cx="233.317" cy="234.848" r="4"/>
			<path fill="#66411D" d="M89.752,299.005c0,0-37.02,24.134-38.999,17.386C50.753,316.392,43.883,310.881,89.752,299.005z"/>
			<circle fill="none" stroke="#C69C6D" stroke-miterlimit="10" cx="233.376" cy="234.872" r="4"/>
			<path fill="#66411D" d="M85.648,288.758c0,0-38.628,21.466-40.127,14.596C45.521,303.354,39.056,297.373,85.648,288.758z"/>
			<circle fill="none" stroke="#C69C6D" stroke-miterlimit="10" cx="233.432" cy="234.901" r="4"/>
			<path fill="#66411D" d="M82.276,278.246c0,0-40.044,18.692-41.056,11.733C41.22,289.979,35.193,283.558,82.276,278.246z"/>
			<circle fill="none" cx="233.487" cy="234.933" r="4"/>
			<path fill="#66411D" d="M79.652,267.523c0,0-41.261,15.824-41.78,8.812C37.872,276.335,32.313,269.506,79.652,267.523z"/>
			<circle fill="none" stroke="#C69C6D" stroke-miterlimit="10" cx="233.539" cy="234.969" r="4"/>
			<path fill="#66411D" d="M77.791,256.642c0,0-42.273,12.879-42.297,5.847C35.494,262.489,30.429,255.285,77.791,256.642z"/>
			<circle fill="none" stroke="#C69C6D" stroke-miterlimit="10" cx="233.589" cy="235.009" r="4"/>
			<path fill="#66411D" d="M76.701,245.657c0,0-43.075,9.869-42.604,2.853C34.097,248.51,29.552,240.967,76.701,245.657z"/>
			<circle fill="none" stroke="#C69C6D" stroke-miterlimit="10" cx="233.635" cy="235.052" r="4"/>
			<path fill="#66411D" d="M76.387,234.622c0,0-43.664,6.81-42.699-0.155C33.688,234.467,29.686,226.623,76.387,234.622z"/>
			<circle cx="233.679" cy="235.099" r="10.19"/>
			<path fill="#66411D" d="M76.851,223.593c0,0-44.035,3.718-42.582-3.162C34.27,220.431,30.83,212.324,76.851,223.593z"/>
			<path fill="#66411D" d="M78.092,212.624c0,0-44.187,0.606-42.253-6.154C35.838,206.47,32.978,198.141,78.092,212.624z"/>
			<path fill="#66411D" d="M80.101,201.769c0,0-44.12-2.508-41.715-9.115C38.386,192.654,36.12,184.144,80.101,201.769z"/>
			<path fill="#66411D" d="M82.871,191.083c0,0-43.834-5.609-40.969-12.031C41.901,179.052,40.24,170.404,82.871,191.083z"/>
			<path fill="#66411D" d="M86.386,180.619c0,0-43.33-8.683-40.02-14.887C46.366,165.732,45.318,156.988,86.386,180.619z"/>
			<path fill="#66411D" d="M90.629,170.428c0,0-42.611-11.714-38.872-17.669C51.757,152.759,51.328,143.963,90.629,170.428z"/>
			<path fill="#66411D" d="M95.58,160.561c0,0-41.68-14.686-37.531-20.363C58.05,140.198,58.241,131.394,95.58,160.561z"/>
			<path fill="#66411D" d="M101.214,151.068c0,0-40.542-17.586-36.003-22.956C65.211,128.112,66.022,119.342,101.214,151.068z"/>
			<path fill="#66411D" d="M107.502,141.995c0,0-39.202-20.398-34.297-25.436C73.206,116.56,74.632,107.869,107.502,141.995z"/>
			<path fill="#66411D" d="M114.414,133.388c0,0-37.668-23.109-32.42-27.788C81.994,105.599,84.03,97.031,114.414,133.388z"/>
			<path fill="#66411D" d="M121.915,125.288c0,0-35.947-25.705-30.382-30.003C91.533,95.286,94.167,86.882,121.915,125.288z"/>
			<path fill="#66411D" d="M129.968,117.738c0,0-34.047-28.173-28.193-32.068C101.775,85.669,104.994,77.472,129.968,117.738z"/>
			<path fill="#66411D" d="M138.532,110.773c0,0-31.978-30.501-25.864-33.975C112.669,76.798,116.457,68.848,138.532,110.773z"/>
			<path fill="#66411D" d="M147.566,104.429c0,0-29.75-32.678-23.406-35.712C124.16,68.717,128.499,61.053,147.566,104.429z"/>
			<path fill="#66411D" d="M157.025,98.737c0,0-27.374-34.692-20.833-37.272C136.192,61.465,141.061,54.126,157.025,98.737z"/>
			<path fill="#66411D" d="M166.861,93.725c0,0-24.862-36.534-18.155-38.647C148.706,55.078,154.079,48.101,166.861,93.725z"/>
			<path fill="#66411D" d="M177.025,89.419c0,0-22.227-38.195-15.388-39.83C161.637,49.589,167.489,43.007,177.025,89.419z"/>
			<path fill="#66411D" d="M187.468,85.84c0,0-19.481-39.666-12.544-40.815C174.924,45.025,181.224,38.871,187.468,85.84z"/>
			<path fill="#66411D" d="M198.137,83.005c0,0-16.639-40.939-9.638-41.597C188.499,41.407,195.217,35.713,198.137,83.005z"/>
			<path fill="#66411D" d="M208.979,80.928c0,0-13.714-42.01-6.684-42.173C202.295,38.755,209.398,33.549,208.979,80.928z"/>
			<path fill="#66411D" d="M219.94,79.62c0,0-10.72-42.871-3.696-42.539C216.244,37.082,223.695,32.388,219.94,79.62z"/>
			<path fill="#66411D" d="M230.966,79.088c0,0-7.674-43.52-0.691-42.694C230.276,36.395,238.039,32.238,230.966,79.088z"/>
			<path fill="#66411D" d="M242.003,79.334c0,0-4.589-43.953,2.318-42.636C244.321,36.698,252.358,33.098,242.003,79.334z"/>
			<path fill="#66411D" d="M252.994,80.357c0,0-1.482-44.167,5.316-42.367C258.31,37.99,266.581,34.965,252.994,80.357z"/>
		</g>
		<g>
			<g>
				<path fill="#AF783D" d="M212,151.025c0,0-6,15-39.999-7.333c-9.858-6.475-21.647-20.287-18.831-32.792
					c4.526-20.09,34.578,2.514,41.168,8.738c5.011,4.733,9.332,10.217,12.996,16.054C207.333,135.691,212.667,142.025,212,151.025z"
					/>
				<path d="M156.75,111.108c0,0,21.25,16.5,30.25,20.25c7.102,3.118,15.564,7.397,20.272,13.758
					c0.743,1.005,1.149,2.389,1.574,3.53c-5.503-5.752-12.172-10.6-19.596-13.539C177.25,130.358,157,117.108,156.75,111.108z"/>
			</g>
			<g>
				<path fill="#AF783D" d="M219.546,134.475c-0.828-0.273-1.63-0.639-2.403-1.062c-2.787-1.526-5.162-3.86-7.362-6.123
					c-6.649-6.838-10.479-15.224-12.592-24.461c-1.633-7.14-2.936-16.495-1.189-23.721c0.012-0.048,5.264-21.734,18.25-7.5
					c0,0,23.998,24.998,14.501,61.497c-0.275,1.055-4.884,1.837-5.811,1.875C221.768,135.03,220.634,134.833,219.546,134.475z"/>
				<path d="M202.75,72.108c0,0,5,18.25,13.75,30.75s10.75,25.25,10.25,28.5c-0.719-4.378-2.024-8.658-3.604-12.794
					c-3.695-9.672-11.589-16.971-15.418-26.696C207.186,90.49,200.28,72.726,202.75,72.108z"/>
			</g>
			<g>
				<path fill="#AF783D" d="M218.25,168.358c0,0-12.5-4.75,0-18.75c0,0,18-20,40.5-19.75c0,0,27.75,1.75,20.5,14.75
					C279.25,144.608,258.75,173.858,218.25,168.358z"/>
				<path d="M217.5,163.858c16.789-1.259,30.483-15.708,45.096-22.814c2.017-0.981,4.075-1.974,6.213-2.667
					c1.095-0.355,2.999-0.282,3.942-0.769c-9.478,4.892-19.146,9.803-27.742,16.143C237.49,159.297,227.163,164.824,217.5,163.858z"
					/>
			</g>
		</g>
		<g>
			<path fill="#F2F2F2" d="M308.999,195.357c-2.335-4.892-7.675-8.665-10.036-14.118c-6.073-14.027-2.682-27.813,0.268-42.031
				c1.949-9.391,4.667-23.795-2.229-31.847c16.498,9.997,17.521,29.439,10.011,49.455
				C302.538,168.743,303.358,183.536,308.999,195.357z"/>
			<path fill="#F2F2F2" d="M339.999,225.857c-2.335-4.892-7.675-8.665-10.036-14.118c-6.073-14.027-2.682-27.813,0.268-42.031
				c1.949-9.391,4.667-23.795-2.229-31.847c16.498,9.997,17.521,29.439,10.011,49.455
				C333.538,199.243,334.358,214.036,339.999,225.857z"/>
		</g>
		<g>
			<path fill="#F2F2F2" d="M292.5,170.358c-56.609,0-109.125,12.125-132.75,29h0.125c22.434-12.709,64.209-23,110.54-23
				c71.379,0,129.841,20.076,130.578,44.842s-56.529,44.842-127.908,44.842c-45.961,0-88.935-9.739-113.46-23.433l-0.125-0.125
				c35.75,21,76.08,29.376,133,29.376c82.843,0,150-22.722,150-50.75C442.5,193.08,375.343,170.358,292.5,170.358z"/>
		</g>
		<g>
			<path fill="#F2F2F2" d="M449.25,214.858c0,0,0.084,0.484,0.213,1.391c0.009-0.132,0.029-0.258,0.037-0.391L449.25,214.858z"/>
			<path fill="#F2F2F2" d="M449.463,216.249c-5.008,70.734-147.963,61.109-147.963,61.109c-145,2-156-48-156-48l0.167,4.333
				C91,223.691,83,258.358,83,258.358c-9.333,83.333,85.333,89.333,85.333,89.333C253,466.358,375,392.358,375,392.358
				C462.918,332.499,451.331,229.348,449.463,216.249z M152.112,327.05c-5.886-1.344-11.658-3.217-17.175-5.675
				c-16.832-7.499-35.684-25.501-37.575-44.542c-0.937-9.435,2.338-20.466,10.783-25.72c6.511-4.051,21.034-3.907,26.851,1.908
				c9.998,9.994,11.329,23.257,12.972,36.562c1.377,11.152,2.724,30.466,11.031,38.774
				C158.082,327.44,153.334,327.329,152.112,327.05z"/>
		</g>
	</g>
	<path d="M807.667,187.024c0,4.234-3.432,7.667-7.667,7.667H504.667c-4.234,0-7.667-3.432-7.667-7.667l0,0
		c0-4.234,3.432-7.667,7.667-7.667H800C804.234,179.357,807.667,182.79,807.667,187.024L807.667,187.024z"/>
	<path fill="#B1773A" d="M1006.333,326.469c0,4.234-2.954,7.667-6.597,7.667H745.597c-3.644,0-6.597-3.432-6.597-7.667l0,0
		c0-4.234,2.954-7.667,6.597-7.667h254.139C1003.38,318.802,1006.333,322.235,1006.333,326.469L1006.333,326.469z"/>
	<circle fill="#B2763C" cx="1021.999" cy="326.469" r="8.667"/>
	<circle fill="#B2763C" cx="1044.332" cy="326.469" r="8.667"/>
	<g>
		<g>
			<path fill="#B2763C" d="M544.842,289.024H529.95l-16.211-30.469h-1.27v30.469h-13.672v-71.826h14.502
				c6.38,0,11.067,0.407,14.063,1.223c4.85,1.271,8.528,3.928,11.035,7.969c2.051,3.292,3.076,7.187,3.076,11.684
				c0,9.452-4.558,15.808-13.672,19.066L544.842,289.024z M528.192,237.877c0-3.299-1.493-5.503-4.479-6.613
				c-1.362-0.49-3.861-0.735-7.496-0.735h-3.749v14.746h4.284c3.602,0,6.199-0.359,7.789-1.078
				C526.975,243.087,528.192,240.98,528.192,237.877z"/>
			<path fill="#B2763C" d="M610.585,263.78l-0.049,2.539h-42.773c0.65,3.892,2.34,6.915,5.071,9.071
				c2.731,2.155,6.112,3.233,10.144,3.233c4.975,0,9.25-1.725,12.826-5.176l11.217,5.273c-5.469,7.78-13.461,11.67-23.975,11.67
				c-8.171,0-14.917-2.571-20.239-7.715c-5.322-5.143-7.983-11.783-7.983-19.922c0-8.04,2.579-14.754,7.739-20.142
				c5.159-5.387,11.743-8.081,19.751-8.081c8.365,0,15.169,2.67,20.41,8.008C608.127,248.074,610.747,255.154,610.585,263.78z
				 M597.108,255.772c-0.908-3.063-2.677-5.479-5.305-7.252c-2.628-1.773-5.58-2.66-8.856-2.66c-3.698,0-6.942,1.031-9.732,3.095
				c-1.752,1.289-3.374,3.563-4.866,6.817H597.108z"/>
			<path fill="#B2763C" d="M657.723,273.82c0,5.183-1.938,9.305-5.811,12.368c-3.549,2.803-7.992,4.203-13.33,4.203
				c-7.748,0-13.933-3.027-18.555-9.082l8.188-8.936c3.476,4.102,7.164,6.152,11.063,6.152c1.429,0,2.712-0.325,3.85-0.978
				c1.332-0.814,1.998-1.89,1.998-3.226c0-2.086-1.934-4.091-5.799-6.013l-4.482-2.249c-8.575-4.302-12.863-9.728-12.863-16.278
				c0-4.562,1.773-8.293,5.322-11.193c3.287-2.705,7.275-4.058,11.963-4.058c7.291,0,13.118,2.93,17.48,8.789l-8.252,8.252
				c-3.342-3.353-6.374-5.029-9.099-5.029c-3.18,0-4.769,1.108-4.769,3.324c0,1.369,1.592,2.852,4.775,4.448l4.872,2.444
				c4.386,2.184,7.552,4.351,9.502,6.501C656.406,266.162,657.723,269.683,657.723,273.82z"/>
			<path fill="#B2763C" d="M693.924,247.423h-7.861v41.602h-13.33v-41.602h-6.836v-11.523h6.836v-19.58h13.33v19.58h7.861V247.423z"
				/>
			<path fill="#B2763C" d="M756.54,289.024h-13.33v-5.615c-4.91,4.655-10.356,6.982-16.338,6.982
				c-7.349,0-13.462-2.832-18.339-8.496c-4.649-5.436-6.974-11.881-6.974-19.336c0-7.649,2.211-14.144,6.633-19.482
				c4.715-5.696,10.811-8.545,18.289-8.545c6.405,0,11.981,2.409,16.729,7.227v-5.859h13.33V289.024z M743.845,262.365
				c0-4.445-1.33-8.137-3.991-11.074c-2.66-2.937-6.196-4.405-10.607-4.405c-4.315,0-7.819,1.525-10.512,4.575
				c-2.563,2.921-3.845,6.571-3.845,10.952c0,4.349,1.298,8.017,3.894,11.001c2.725,3.148,6.229,4.722,10.511,4.722
				c4.412,0,7.981-1.541,10.706-4.624C742.563,270.56,743.845,266.844,743.845,262.365z"/>
			<path fill="#B2763C" d="M819.548,258.409c0,9.277-0.732,15.625-2.197,19.043c-3.711,8.627-10.775,12.939-21.191,12.939
				c-11.361,0-18.604-4.932-21.729-14.795c-1.042-3.287-1.563-9.146-1.563-17.578v-22.119h13.525v25.557
				c0,3.804,0.146,6.503,0.438,8.096c0.583,3.122,1.878,5.382,3.887,6.779c1.489,1.073,3.336,1.609,5.539,1.609
				c4.502,0,7.515-2.08,9.037-6.242c0.551-1.528,0.826-4.796,0.826-9.804v-25.995h13.428V258.409z"/>
			<path fill="#B2763C" d="M861.218,235.899l-4.15,11.523c-1.557-0.781-2.837-1.172-3.841-1.172c-2.041,0-3.76,1.269-5.152,3.805
				c-1.557,2.764-2.271,7.739-2.14,14.924l0.049,2.585v21.46h-13.281v-53.125h11.475v6.689c2.499-5.371,6.378-8.057,11.637-8.057
				C857.533,234.532,859.335,234.988,861.218,235.899z"/>
			<path fill="#B2763C" d="M923.248,289.024h-13.33v-5.615c-4.91,4.655-10.356,6.982-16.338,6.982
				c-7.349,0-13.462-2.832-18.339-8.496c-4.649-5.436-6.974-11.881-6.974-19.336c0-7.649,2.211-14.144,6.633-19.482
				c4.715-5.696,10.811-8.545,18.289-8.545c6.405,0,11.981,2.409,16.729,7.227v-5.859h13.33V289.024z M910.553,262.365
				c0-4.445-1.33-8.137-3.991-11.074c-2.66-2.937-6.196-4.405-10.607-4.405c-4.315,0-7.819,1.525-10.512,4.575
				c-2.563,2.921-3.845,6.571-3.845,10.952c0,4.349,1.298,8.017,3.894,11.001c2.725,3.148,6.229,4.722,10.511,4.722
				c4.412,0,7.981-1.541,10.706-4.624C909.271,270.56,910.553,266.844,910.553,262.365z"/>
			<path fill="#B2763C" d="M986.744,289.024h-13.232v-23.264c0-4.845-0.081-7.917-0.242-9.218c-0.487-3.967-1.67-6.698-3.548-8.193
				c-1.426-1.073-3.176-1.61-5.249-1.61c-5.702,0-9.347,3.398-10.935,10.194c-0.39,1.658-0.583,5.251-0.583,10.777v21.313h-13.33
				v-53.125h13.33v5.42c5.396-4.524,10.646-6.787,15.749-6.787c5.298,0,9.768,1.84,13.408,5.518
				c3.088,3.093,4.632,7.715,4.632,13.867V289.024z"/>
			<path fill="#B2763C" d="M1025.337,247.423h-7.861v41.602h-13.33v-41.602h-6.836v-11.523h6.836v-19.58h13.33v19.58h7.861V247.423z
				"/>
		</g>
	</g>
	<g>
		<path d="M844.914,137.216c0,0,0,37.575,0,37.658c0,5.907,0.829,19.772-8.848,17.02c-2.876-0.818-7.179-2.618-9.34-4.683
			c0,0-4.848,5.427-4.85,5.429c-0.332,0.371,8.681,4.551,9.67,4.884c3.867,1.302,8.39,2.064,12.402,1.011
			c8.985-2.36,9.837-13.144,9.837-20.752v-40.568H844.914z"/>
		<g>
			<path d="M867.217,175.148c0-7.208,2.034-12.896,6.103-17.065c4.068-4.169,9.586-6.254,16.554-6.254
				c6.621,0,11.813,2.006,15.575,6.018c3.763,4.012,5.645,9.556,5.645,16.631c0,6.892-2.009,12.456-6.023,16.691
				c-4.016,4.235-9.4,6.353-16.154,6.353c-6.595,0-11.859-2.052-15.795-6.155C869.185,187.261,867.217,181.856,867.217,175.148z
				 M875.194,174.911c0,5.025,1.282,8.983,3.849,11.877c2.566,2.894,6.017,4.34,10.351,4.34c4.468,0,7.871-1.414,10.212-4.242
				c2.339-2.828,3.51-6.886,3.51-12.173c0-5.313-1.171-9.391-3.51-12.232c-2.341-2.841-5.744-4.262-10.212-4.262
				c-4.387,0-7.851,1.487-10.39,4.459C876.464,165.652,875.194,169.729,875.194,174.911z"/>
			<path d="M957.536,196.495h-7.219v-26.437c0-3.419-0.745-5.984-2.234-7.694s-3.709-2.565-6.661-2.565
				c-2.925,0-5.538,1.006-7.837,3.019c-2.301,2.012-3.45,5.61-3.45,10.792v22.886h-7.18v-60.848h7.18v23.757
				c3.403-3.814,7.658-5.722,12.764-5.722c2.738,0,5.357,0.553,7.857,1.657c2.499,1.105,4.254,2.802,5.265,5.09
				s1.516,5.472,1.516,9.549V196.495z"/>
		</g>
		<g>
			<path d="M1015.502,184.953c0,3.636-1.263,6.653-3.789,9.05s-5.638,3.596-9.334,3.596c-5.345,0-9.612-2.025-12.803-6.077
				l3.51-3.946c2.838,3.157,5.85,4.735,9.033,4.735c2.095,0,3.959-0.676,5.591-2.027c1.632-1.352,2.447-3.05,2.447-5.097
				c0-2.073-0.969-3.896-2.905-5.471c-0.956-0.787-2.84-1.89-5.652-3.306c-3.211-1.631-5.559-3.249-7.044-4.854
				c-2.017-2.157-3.025-4.735-3.025-7.734c0-3.34,1.137-6.069,3.41-8.188c2.273-2.117,5.099-3.176,8.476-3.176
				c3.989,0,8.004,1.934,12.046,5.8l-3.582,3.67c-2.973-2.841-5.878-4.262-8.717-4.262c-1.725,0-3.251,0.563-4.577,1.688
				c-1.327,1.125-1.99,2.525-1.99,4.199c0,2.826,2.76,5.651,8.279,8.476c3.396,1.739,5.863,3.399,7.403,4.979
				C1014.427,179.223,1015.502,181.871,1015.502,184.953z"/>
		</g>
		<polygon points="974.868,154.289 980.994,154.289 982.356,135.77 973.847,135.77 		"/>
	</g>
</g>
</svg>
